<svg width="54" height="60" viewBox="0 0 54 60" fill="none" xmlns="http://www.w3.org/2000/svg">
<g clip-path="url(#clip0_155_78748)">
<path d="M40.9593 57.0103V60H26.7861C27.6562 60 28.3618 59.2939 28.3618 58.4235C28.3618 58.3705 28.4553 57.0103 28.4553 57.0103H40.9593Z" fill="#E9ECEF"/>
<path d="M26.786 19.0057C26.6502 19.0057 26.5182 19.0228 26.3922 19.0554C26.3422 19.0686 26.2927 19.0841 26.2454 19.1017C26.1964 19.1188 26.1491 19.1387 26.1035 19.1613C26.0579 19.1834 26.0133 19.2082 25.9699 19.2347C25.9484 19.2468 25.9264 19.2611 25.9055 19.2755C25.8643 19.3047 25.8241 19.3351 25.7851 19.3665C25.7752 19.3748 25.7658 19.3825 25.7559 19.3913C25.7466 19.3996 25.7372 19.4079 25.7273 19.4161H25.7268C25.7136 19.4283 25.7009 19.4404 25.6888 19.4525C25.6833 19.4575 25.6778 19.463 25.6729 19.4685C25.6635 19.4768 25.6542 19.4856 25.6465 19.495C25.6371 19.5044 25.6283 19.5138 25.6206 19.5232C25.6041 19.5419 25.5871 19.5601 25.5711 19.58C25.5601 19.5943 25.5497 19.6081 25.5381 19.6213C25.5172 19.6484 25.4974 19.6771 25.4776 19.7057C25.4683 19.7201 25.4584 19.735 25.449 19.7499C25.4419 19.7615 25.4353 19.773 25.4287 19.7841C25.4221 19.7951 25.4155 19.8072 25.4094 19.8183C25.4089 19.8188 25.4083 19.8199 25.4078 19.8205C25.4034 19.8271 25.3995 19.8343 25.3962 19.8409C25.3946 19.8447 25.3924 19.8481 25.3907 19.8519C25.3847 19.8635 25.3786 19.8756 25.3726 19.8872C25.3654 19.9021 25.3583 19.917 25.3522 19.9319C25.3517 19.933 25.3511 19.9341 25.3506 19.9358C25.3385 19.9639 25.3264 19.9926 25.3154 20.0213C25.3099 20.0367 25.3044 20.0516 25.2989 20.067C25.2973 20.0726 25.2951 20.0775 25.2929 20.083C25.2918 20.088 25.2896 20.093 25.2879 20.0979C25.2841 20.1095 25.2797 20.1222 25.2769 20.1338C25.2731 20.1476 25.2698 20.1608 25.2659 20.1746C25.2626 20.1884 25.2599 20.2016 25.256 20.2154C25.2538 20.2276 25.2505 20.2403 25.2472 20.2524C25.245 20.2645 25.2417 20.2772 25.239 20.2893C25.2324 20.3263 25.2258 20.3644 25.2219 20.403C25.2208 20.4179 25.2186 20.4322 25.2175 20.4471C25.217 20.4543 25.2164 20.462 25.2159 20.4703C25.2148 20.4874 25.2142 20.505 25.2137 20.5221C25.2126 20.542 25.212 20.5618 25.212 20.5823L25.0404 22.1185H6.3125V19.0046H26.786V19.0057Z" fill="#E9ECEF"/>
<path d="M47.2594 19.0059V22.1197H28.5331L28.3621 20.5873V20.5862C28.3621 20.5609 28.3615 20.5355 28.3599 20.5101C28.3599 20.5029 28.3593 20.4958 28.3588 20.4886C28.3582 20.4776 28.3577 20.4665 28.3571 20.4549C28.3566 20.4434 28.3555 20.4334 28.3538 20.4218C28.3516 20.3965 28.3478 20.3705 28.3445 20.3457C28.3401 20.3192 28.3351 20.2922 28.3296 20.2657C28.3252 20.2442 28.3203 20.2216 28.3148 20.2001C28.3137 20.1951 28.3126 20.1902 28.3109 20.1852C28.3098 20.1802 28.3087 20.1758 28.3065 20.1709C28.3027 20.1549 28.2977 20.1389 28.2928 20.1229C28.2884 20.1069 28.2829 20.0914 28.2779 20.076C28.2741 20.0644 28.2697 20.0523 28.2658 20.0407L28.2449 19.9872C28.2389 19.9717 28.2317 19.9563 28.2251 19.9408C28.2246 19.9403 28.224 19.9392 28.224 19.9386C28.2229 19.9353 28.2218 19.9326 28.2202 19.9293C28.2158 19.9193 28.2114 19.9094 28.2064 19.8995C28.1965 19.8796 28.1866 19.8592 28.1756 19.8399C28.1745 19.8382 28.1734 19.8355 28.1718 19.8333C28.1712 19.8322 28.1701 19.83 28.1696 19.8283C28.1646 19.8195 28.1597 19.8112 28.1547 19.8024C28.1498 19.793 28.1448 19.7842 28.1393 19.7759C28.1338 19.7665 28.1278 19.7572 28.1228 19.7478C28.1206 19.7445 28.1184 19.7417 28.1168 19.7384C28.1058 19.7219 28.0954 19.7053 28.0838 19.6888C28.0734 19.6739 28.0629 19.659 28.0519 19.6446C28.0453 19.6353 28.0398 19.6264 28.0321 19.6181C28.0228 19.6049 28.0129 19.5933 28.0024 19.5812C27.9865 19.5608 27.9694 19.5415 27.9529 19.5227C27.9364 19.5045 27.9188 19.4874 27.9018 19.4698C27.9018 19.4698 27.9016 19.4694 27.9012 19.4687C27.9012 19.4687 27.9012 19.4676 27.9007 19.4681C27.9007 19.4681 27.9003 19.4679 27.8996 19.4676C27.8825 19.4505 27.8649 19.4334 27.8468 19.4163C27.8281 19.3997 27.8088 19.3832 27.7896 19.3666H27.789C27.7769 19.3561 27.7648 19.3468 27.7527 19.3374C27.7428 19.3291 27.7324 19.3214 27.7219 19.3137C27.7186 19.3115 27.7159 19.3092 27.7126 19.307C27.6977 19.2966 27.6834 19.2861 27.6686 19.2756C27.6477 19.2618 27.6257 19.2486 27.6042 19.2348H27.6037C27.5855 19.2237 27.5679 19.2133 27.5498 19.2033C27.5454 19.2011 27.5415 19.1989 27.5377 19.1967C27.5278 19.1918 27.5184 19.1868 27.5091 19.1818C27.4997 19.1769 27.4904 19.1724 27.4805 19.168C27.4706 19.1631 27.4612 19.1581 27.4513 19.1537C27.4475 19.152 27.4442 19.1498 27.4398 19.1482C27.4343 19.146 27.4288 19.1432 27.4227 19.141C27.4211 19.1399 27.4189 19.1394 27.4172 19.1377C27.4161 19.1371 27.4139 19.1366 27.4128 19.136C27.3732 19.1195 27.3331 19.1029 27.2919 19.0897C27.2803 19.0853 27.2677 19.0814 27.2561 19.0781C27.2473 19.0759 27.2391 19.0726 27.2297 19.0698C27.2209 19.0676 27.2116 19.0649 27.2028 19.0627C27.0708 19.0263 26.9316 19.007 26.7881 19.007H47.2616L47.2594 19.0059Z" fill="#E9ECEF"/>
<path d="M24.6845 25.2798L24.3259 28.4858H3.16113V25.2798H24.6845Z" fill="#E9ECEF"/>
<path d="M50.4211 25.2798V28.4858H29.2458L28.8867 25.2798H50.4211Z" fill="#E9ECEF"/>
<path d="M23.6853 34.2088H23.6858C23.6523 34.3925 23.6352 34.5806 23.6352 34.7725V34.8056H0V31.646H23.9718L23.6853 34.2088Z" fill="#E9ECEF"/>
<path d="M53.5714 31.646V34.8056H29.9362V34.7725C29.9362 34.7554 29.9362 34.7378 29.9356 34.7207C29.9351 34.7102 29.9351 34.6992 29.9351 34.6876C29.9351 34.6771 29.9345 34.6666 29.934 34.6556C29.934 34.6413 29.9334 34.6275 29.9323 34.6137C29.9318 34.5949 29.9307 34.5767 29.929 34.5585C29.9279 34.5348 29.9257 34.5116 29.9235 34.4885C29.923 34.4796 29.9224 34.4714 29.9213 34.4625C29.9197 34.441 29.9169 34.4195 29.9147 34.398C29.9109 34.3665 29.9065 34.3346 29.9015 34.3031C29.8971 34.2717 29.8916 34.2408 29.8861 34.2088V34.2071L29.5996 31.646H53.5725H53.5714Z" fill="#E9ECEF"/>
<path d="M24.065 41.1261H3.15039V37.9653H23.8565L24.065 41.1261Z" fill="#E9ECEF"/>
<path d="M50.4199 37.9653V41.1261H29.5059L29.7143 37.9653H50.4199Z" fill="#E9ECEF"/>
<path d="M24.4795 47.4001H6.3125V44.2394H24.271L24.4795 47.4001Z" fill="#E9ECEF"/>
<path d="M47.2596 44.2394V47.4001H29.0938L29.3016 44.2394H47.2596Z" fill="#E9ECEF"/>
<path d="M24.8991 53.7199H9.45117V50.5597H24.6863L24.7759 51.9183C24.7759 51.9183 24.7781 51.9183 24.7798 51.9189L24.8991 53.7199Z" fill="#E9ECEF"/>
<path d="M44.1083 50.5597V53.7199H28.6719C28.6719 53.7199 28.794 51.915 28.7962 51.915L28.8858 50.5597H44.1088H44.1083Z" fill="#E9ECEF"/>
<path d="M26.785 60H12.6025V57.0103H25.117C25.117 57.0103 25.2105 58.3711 25.2105 58.4235C25.2105 59.2945 25.9155 60 26.7856 60H26.785Z" fill="#E9ECEF"/>
<path d="M26.7855 15.8461H9.45117V12.6401H24.595L25.2104 14.2657C25.2104 15.1384 25.9154 15.8461 26.7855 15.8461Z" fill="#E9ECEF"/>
<path d="M44.1093 12.6396V15.8456H26.7871C27.6572 15.8456 28.3628 15.1379 28.3628 14.2652L28.9782 12.6396H44.1093Z" fill="#E9ECEF"/>
<path d="M24.2546 6.31982L23.8449 8.3299L23.8163 8.46891C23.6997 8.79932 23.6359 9.15566 23.6359 9.52635H12.6025V6.32038H24.2541L24.2546 6.31982Z" fill="#E9ECEF"/>
<path d="M40.9578 6.31977V9.52574H29.9365C29.9365 9.15505 29.8727 8.79871 29.7556 8.4683V8.46719L29.7286 8.33315H29.7281L29.3184 6.31921H40.9583L40.9578 6.31977Z" fill="#E9ECEF"/>
<path d="M37.8066 0V3.15964H28.6734L28.394 1.78943L28.3604 1.6256H28.3599C28.3593 0.752951 27.6548 0.0457838 26.7848 0.0457838C25.9147 0.0457838 25.2102 0.752951 25.2097 1.6256L25.1767 1.78722L24.8968 3.15964H15.752V0H37.8061H37.8066Z" fill="#E9ECEF"/>
<path d="M24.6526 4.36328L24.5129 5.04949L24.5014 5.10244H0.00488281V4.36328H24.6526Z" fill="#E9ECEF"/>
<path d="M53.566 4.36328V5.10244H29.0701L29.0508 5.00701L28.9199 4.36328H53.566Z" fill="#E9ECEF"/>
<path d="M24.1631 11.5H0.00488281V10.7609H23.8832L24.1631 11.5Z" fill="#E9ECEF"/>
<path d="M53.5663 10.7609V11.5H29.4092L29.6891 10.7609H53.5663Z" fill="#E9ECEF"/>
<path d="M53.5653 17.0564H0.00488281V17.7956H53.5653V17.0564Z" fill="#E9ECEF"/>
<path d="M24.8973 23.3763L24.8143 24.1161H0.00488281V23.3763H24.8973Z" fill="#E9ECEF"/>
<path d="M53.5657 23.3763V24.1161H28.7563L28.6738 23.3763H53.5657Z" fill="#E9ECEF"/>
<path d="M24.1902 29.696L24.1071 30.4358H0V29.696H24.1902Z" fill="#E9ECEF"/>
<path d="M53.5661 29.696V30.4358H29.4639L29.3809 29.696H53.5661Z" fill="#E9ECEF"/>
<path d="M23.7771 36.7556H0V36.0165H23.7287L23.7771 36.7556Z" fill="#E9ECEF"/>
<path d="M53.5715 36.0165V36.7556H29.7949L29.8439 36.0165H53.5715Z" fill="#E9ECEF"/>
<path d="M24.1918 43.0528H0V42.3125H24.1434L24.1918 43.0528Z" fill="#E9ECEF"/>
<path d="M53.5666 42.3125V43.0528H29.3809L29.4298 42.3125H53.5666Z" fill="#E9ECEF"/>
<path d="M24.6064 49.3489H0.00488281V48.6097H24.558L24.6064 49.3489Z" fill="#E9ECEF"/>
<path d="M53.5708 48.6097V49.3489H28.9648L29.0132 48.6097H53.5708Z" fill="#E9ECEF"/>
<path d="M25.0283 55.6687H0V54.9296H24.9794L24.9849 55.0101L25.0283 55.6687Z" fill="#E9ECEF"/>
<path d="M53.5667 54.9296V55.6687H28.5439L28.5852 55.0437L28.5923 54.9296H53.5667Z" fill="#E9ECEF"/>
</g>
<defs>
<clipPath id="clip0_155_78748">
<rect width="53.5714" height="60" fill="white"/>
</clipPath>
</defs>
</svg>
