<svg width="12" height="12" viewBox="0 0 12 12" fill="none" xmlns="http://www.w3.org/2000/svg">
<rect width="12" height="12" rx="6" fill="#343A40"/>
<g clip-path="url(#clip0_670_130996)">
<path d="M7.58724 9.02441V9.35923H6C6.09744 9.35923 6.17646 9.28016 6.17646 9.18268C6.17646 9.17675 6.18693 9.02441 6.18693 9.02441H7.58724Z" fill="#E9ECEF"/>
<path d="M5.99985 4.76868C5.98464 4.76868 5.96986 4.77059 5.95575 4.77424C5.95015 4.77572 5.9446 4.77745 5.93931 4.77943C5.93383 4.78134 5.92853 4.78357 5.92342 4.7861C5.9183 4.78857 5.91332 4.79135 5.90845 4.79431C5.90605 4.79567 5.90358 4.79728 5.90124 4.79889C5.89663 4.80216 5.89213 4.80556 5.88776 4.80908C5.88665 4.81001 5.8856 4.81087 5.88449 4.81186C5.88344 4.81279 5.8824 4.81371 5.88129 4.81464H5.88123C5.87975 4.816 5.87833 4.81736 5.87698 4.81872C5.87636 4.81927 5.87575 4.81989 5.87519 4.82051C5.87414 4.82143 5.8731 4.82242 5.87224 4.82347C5.87119 4.82452 5.8702 4.82557 5.86934 4.82662C5.86749 4.82872 5.86558 4.83076 5.8638 4.83299C5.86257 4.83459 5.8614 4.83614 5.8601 4.83762C5.85776 4.84065 5.85554 4.84386 5.85333 4.84707C5.85228 4.84868 5.85117 4.85034 5.85012 4.85201C5.84932 4.85331 5.84858 4.85461 5.84785 4.85584C5.84711 4.85708 5.84637 4.85844 5.84569 4.85967C5.84563 4.85973 5.84557 4.85986 5.84551 4.85992C5.84501 4.86066 5.84458 4.86146 5.84421 4.86221C5.84403 4.86264 5.84378 4.86301 5.8436 4.86344C5.84292 4.86474 5.84224 4.8661 5.84156 4.86739C5.84076 4.86906 5.83996 4.87073 5.83928 4.8724C5.83922 4.87252 5.83916 4.87265 5.8391 4.87283C5.83774 4.87598 5.83639 4.87919 5.83516 4.88241C5.83454 4.88414 5.83393 4.8858 5.83331 4.88753C5.83313 4.88815 5.83288 4.88871 5.83263 4.88932C5.83251 4.88988 5.83226 4.89044 5.83208 4.89099C5.83165 4.89229 5.83115 4.89371 5.83085 4.89501C5.83042 4.89655 5.83005 4.89803 5.82961 4.89958C5.82925 4.90112 5.82894 4.90261 5.82851 4.90415C5.82826 4.90551 5.82789 4.90693 5.82752 4.90829C5.82727 4.90965 5.82691 4.91107 5.8266 4.91243C5.82586 4.91657 5.82512 4.92083 5.82469 4.92515C5.82456 4.92682 5.82432 4.92843 5.82419 4.9301C5.82413 4.9309 5.82407 4.93176 5.82401 4.93269C5.82389 4.93461 5.82383 4.93658 5.82376 4.9385C5.82364 4.94072 5.82358 4.94295 5.82358 4.94523L5.80436 5.11727H3.70703V4.76855H5.99985V4.76868Z" fill="#E9ECEF"/>
<path d="M8.29257 4.76855V5.11727H6.19543L6.17627 4.94566V4.94554C6.17627 4.9427 6.17621 4.93986 6.17602 4.93701C6.17602 4.93621 6.17596 4.93541 6.1759 4.93461C6.17584 4.93337 6.17578 4.93213 6.17572 4.93084C6.17566 4.92954 6.17553 4.92843 6.17535 4.92713C6.1751 4.92429 6.17467 4.92139 6.1743 4.91861C6.17381 4.91564 6.17325 4.91261 6.17264 4.90965C6.17214 4.90724 6.17159 4.90471 6.17097 4.9023C6.17085 4.90174 6.17073 4.90119 6.17054 4.90063C6.17042 4.90007 6.1703 4.89958 6.17005 4.89902C6.16962 4.89723 6.16907 4.89544 6.16851 4.89365C6.16802 4.89186 6.1674 4.89013 6.16685 4.8884C6.16642 4.8871 6.16592 4.88574 6.16549 4.88444L6.16315 4.87845C6.16248 4.87672 6.16167 4.87499 6.16094 4.87326C6.16087 4.8732 6.16081 4.87308 6.16081 4.87302C6.16069 4.87265 6.16057 4.87234 6.16038 4.87197C6.15989 4.87085 6.1594 4.86974 6.15884 4.86863C6.15773 4.86641 6.15662 4.86412 6.15539 4.86196C6.15527 4.86177 6.15515 4.86146 6.15496 4.86122C6.1549 4.86109 6.15478 4.86085 6.15471 4.86066C6.15416 4.85967 6.15361 4.85875 6.15305 4.85776C6.1525 4.85671 6.15194 4.85572 6.15133 4.85479C6.15071 4.85374 6.15003 4.85269 6.14948 4.85164C6.14923 4.85127 6.14899 4.85096 6.1488 4.85059C6.14757 4.84874 6.1464 4.84689 6.14511 4.84503C6.14394 4.84336 6.14277 4.8417 6.14153 4.84009C6.1408 4.83904 6.14018 4.83805 6.13932 4.83712C6.13827 4.83564 6.13716 4.83435 6.13599 4.83299C6.13421 4.8307 6.1323 4.82854 6.13045 4.82644C6.1286 4.8244 6.12663 4.82248 6.12472 4.82051C6.12472 4.82051 6.1247 4.82047 6.12466 4.82038C6.12466 4.82038 6.12466 4.82026 6.1246 4.82032C6.1246 4.82032 6.12456 4.8203 6.12447 4.82026C6.12256 4.81835 6.12059 4.81643 6.11856 4.81452C6.11647 4.81266 6.11431 4.81081 6.11216 4.80896H6.11209C6.11074 4.80778 6.10938 4.80673 6.10803 4.80568C6.10692 4.80475 6.10575 4.80389 6.10458 4.80303C6.10421 4.80278 6.1039 4.80253 6.10353 4.80228C6.10187 4.80111 6.10027 4.79994 6.09861 4.79876C6.09627 4.79722 6.0938 4.79574 6.0914 4.79419H6.09134C6.08931 4.79296 6.08733 4.79178 6.0853 4.79067C6.08481 4.79042 6.08438 4.79018 6.08395 4.78993C6.08284 4.78937 6.08179 4.78882 6.08074 4.78826C6.0797 4.7877 6.07865 4.78721 6.07754 4.78672C6.07643 4.78616 6.07539 4.7856 6.07428 4.78511C6.07385 4.78493 6.07348 4.78468 6.07298 4.78449C6.07237 4.78425 6.07175 4.78394 6.07108 4.78369C6.07089 4.78357 6.07064 4.7835 6.07046 4.78332C6.07034 4.78326 6.07009 4.7832 6.06997 4.78313C6.06553 4.78128 6.06104 4.77943 6.05642 4.77794C6.05512 4.77745 6.05371 4.77702 6.05241 4.77665C6.05143 4.7764 6.0505 4.77603 6.04946 4.77572C6.04847 4.77547 6.04742 4.77516 6.04644 4.77492C6.03166 4.77084 6.01608 4.76868 6 4.76868H8.29282L8.29257 4.76855Z" fill="#E9ECEF"/>
<path d="M5.76489 5.47168L5.72473 5.83071H3.35449V5.47168H5.76489Z" fill="#E9ECEF"/>
<path d="M8.64698 5.47168V5.83071H6.27557L6.23535 5.47168H8.64698Z" fill="#E9ECEF"/>
<path d="M5.65251 6.47158H5.65257C5.64881 6.49215 5.6469 6.51321 5.6469 6.53471V6.53842H3V6.18457H5.68459L5.65251 6.47158Z" fill="#E9ECEF"/>
<path d="M9.00002 6.18457V6.53842H6.35312V6.53471C6.35312 6.5328 6.35312 6.53082 6.35306 6.5289C6.353 6.52773 6.353 6.52649 6.353 6.5252C6.353 6.52402 6.35294 6.52285 6.35288 6.52161C6.35288 6.52001 6.35281 6.51846 6.35269 6.51692C6.35263 6.51482 6.35251 6.51278 6.35232 6.51074C6.3522 6.50809 6.35195 6.50549 6.35171 6.5029C6.35164 6.50191 6.35158 6.50098 6.35146 6.49999C6.35128 6.49758 6.35097 6.49517 6.35072 6.49277C6.35029 6.48924 6.3498 6.48566 6.34924 6.48214C6.34875 6.47862 6.34813 6.47516 6.34752 6.47158V6.47139L6.31543 6.18457H9.00015H9.00002Z" fill="#E9ECEF"/>
<path d="M5.69573 7.24557H3.35352V6.8916H5.67239L5.69573 7.24557Z" fill="#E9ECEF"/>
<path d="M8.64684 6.8916V7.24557H6.30469L6.32803 6.8916H8.64684Z" fill="#E9ECEF"/>
<path d="M5.74154 7.9487H3.70703V7.59473H5.7182L5.74154 7.9487Z" fill="#E9ECEF"/>
<path d="M8.2922 7.59473V7.9487H6.25781L6.28109 7.59473H8.2922Z" fill="#E9ECEF"/>
<path d="M5.7886 8.65664H4.05859V8.30273H5.76477L5.77481 8.45489C5.77481 8.45489 5.77505 8.45489 5.77524 8.45495L5.7886 8.65664Z" fill="#E9ECEF"/>
<path d="M7.93965 8.30273V8.65664H6.21094C6.21094 8.65664 6.22461 8.45452 6.22486 8.45452L6.2349 8.30273H7.93971H7.93965Z" fill="#E9ECEF"/>
<path d="M5.99942 9.35923H4.41113V9.02441H5.81262C5.81262 9.02441 5.82309 9.17681 5.82309 9.18268C5.82309 9.28022 5.90205 9.35923 5.99948 9.35923H5.99942Z" fill="#E9ECEF"/>
<path d="M5.99986 4.4147H4.05859V4.05566H5.75454L5.82346 4.23771C5.82346 4.33544 5.90242 4.4147 5.99986 4.4147Z" fill="#E9ECEF"/>
<path d="M7.93991 4.05566V4.4147H6C6.09744 4.4147 6.17646 4.33544 6.17646 4.23771L6.24538 4.05566H7.93991Z" fill="#E9ECEF"/>
<path d="M5.71604 3.34766L5.67016 3.57276L5.66696 3.58833C5.6539 3.62533 5.64676 3.66524 5.64676 3.70675H4.41113V3.34772H5.71598L5.71604 3.34766Z" fill="#E9ECEF"/>
<path d="M7.5867 3.34772V3.70675H6.35243C6.35243 3.66524 6.34529 3.62533 6.33217 3.58833V3.58821L6.32915 3.5732H6.32909L6.2832 3.34766H7.58676L7.5867 3.34772Z" fill="#E9ECEF"/>
<path d="M7.23356 2.64062V2.99447H6.21073L6.17945 2.84102L6.17569 2.82268H6.17563C6.17557 2.72495 6.09667 2.64575 5.99923 2.64575C5.9018 2.64575 5.8229 2.72495 5.82284 2.82268L5.81914 2.84078L5.78779 2.99447H4.76367V2.64062H7.2335H7.23356Z" fill="#E9ECEF"/>
<path d="M5.76127 3.12988L5.74562 3.20673L5.74433 3.21266H3.00098V3.12988H5.76127Z" fill="#E9ECEF"/>
<path d="M8.99936 3.12988V3.21266H6.25607L6.25392 3.20197L6.23926 3.12988H8.99936Z" fill="#E9ECEF"/>
<path d="M5.70645 3.92848H3.00098V3.8457H5.6751L5.70645 3.92848Z" fill="#E9ECEF"/>
<path d="M8.9993 3.8457V3.92848H6.29395L6.32529 3.8457H8.9993Z" fill="#E9ECEF"/>
<path d="M8.99919 4.5498H3.00098V4.63258H8.99919V4.5498Z" fill="#E9ECEF"/>
<path d="M5.78867 5.25781L5.77937 5.34065H3.00098V5.25781H5.78867Z" fill="#E9ECEF"/>
<path d="M8.99857 5.25781V5.34065H6.22018L6.21094 5.25781H8.99857Z" fill="#E9ECEF"/>
<path d="M5.70905 5.9668L5.69975 6.04964H3V5.9668H5.70905Z" fill="#E9ECEF"/>
<path d="M8.99853 5.9668V6.04964H6.29934L6.29004 5.9668H8.99853Z" fill="#E9ECEF"/>
<path d="M5.66279 6.75661H3V6.67383H5.65737L5.66279 6.75661Z" fill="#E9ECEF"/>
<path d="M8.99964 6.67383V6.75661H6.33691L6.3424 6.67383H8.99964Z" fill="#E9ECEF"/>
<path d="M5.70923 7.46181H3V7.37891H5.70381L5.70923 7.46181Z" fill="#E9ECEF"/>
<path d="M8.99859 7.37891V7.46181H6.29004L6.29552 7.37891H8.99859Z" fill="#E9ECEF"/>
<path d="M5.75609 8.16774H3.00098V8.08496H5.75067L5.75609 8.16774Z" fill="#E9ECEF"/>
<path d="M8.99975 8.08496V8.16774H6.24414L6.24956 8.08496H8.99975Z" fill="#E9ECEF"/>
<path d="M5.80291 8.87477H3V8.79199H5.79743L5.79804 8.80101L5.80291 8.87477Z" fill="#E9ECEF"/>
<path d="M8.99956 8.79199V8.87477H6.19727L6.20188 8.80478L6.20269 8.79199H8.99956Z" fill="#E9ECEF"/>
</g>
<defs>
<clipPath id="clip0_670_130996">
<rect width="5.99944" height="6.71938" fill="white" transform="translate(3 2.64062)"/>
</clipPath>
</defs>
</svg>
