<svg width="12" height="12" viewBox="0 0 12 12" fill="none" xmlns="http://www.w3.org/2000/svg">
<g clip-path="url(#clip0_670_130996)">
<path d="M8.6455 11.042V11.6H6C6.1624 11.6 6.2941 11.4683 6.2941 11.3058C6.2941 11.2959 6.31156 11.042 6.31156 11.042H8.6455Z" fill="#E9ECEF"/>
<path d="M6.00022 3.94747C5.97486 3.94747 5.95023 3.95066 5.92672 3.95674C5.91738 3.95921 5.90814 3.96209 5.89931 3.96539C5.89017 3.96858 5.88134 3.97229 5.87282 3.97651C5.8643 3.98063 5.85599 3.98526 5.84788 3.9902C5.84388 3.99247 5.83977 3.99514 5.83587 3.99782C5.82817 4.00328 5.82068 4.00894 5.81339 4.01481C5.81154 4.01635 5.80979 4.01779 5.80795 4.01944C5.8062 4.02099 5.80446 4.02253 5.80261 4.02408H5.80251C5.80004 4.02634 5.79768 4.02861 5.79542 4.03087C5.7944 4.0318 5.79337 4.03283 5.79245 4.03386C5.7907 4.0354 5.78896 4.03705 5.78752 4.0388C5.78577 4.04055 5.78413 4.0423 5.78269 4.04405C5.77961 4.04755 5.77643 4.05095 5.77346 4.05465C5.7714 4.05733 5.76945 4.05991 5.7673 4.06238C5.7634 4.06742 5.7597 4.07278 5.756 4.07813C5.75426 4.08081 5.75241 4.08359 5.75067 4.08637C5.74933 4.08853 5.7481 4.09069 5.74687 4.09275C5.74564 4.09481 5.7444 4.09708 5.74327 4.09913C5.74317 4.09924 5.74307 4.09944 5.74297 4.09955C5.74215 4.10078 5.74143 4.10212 5.74081 4.10336C5.7405 4.10408 5.74009 4.10469 5.73978 4.10542C5.73866 4.10758 5.73753 4.10984 5.7364 4.112C5.73506 4.11478 5.73373 4.11756 5.7326 4.12034C5.7325 4.12055 5.73239 4.12076 5.73229 4.12107C5.73003 4.12632 5.72777 4.13167 5.72572 4.13702C5.72469 4.13991 5.72367 4.14269 5.72264 4.14557C5.72233 4.1466 5.72192 4.14753 5.72151 4.14856C5.72131 4.14948 5.7209 4.15041 5.72059 4.15134C5.71987 4.1535 5.71905 4.15587 5.71854 4.15803C5.71782 4.1606 5.7172 4.16307 5.71648 4.16565C5.71587 4.16822 5.71535 4.17069 5.71463 4.17327C5.71422 4.17553 5.71361 4.1779 5.71299 4.18017C5.71258 4.18243 5.71197 4.1848 5.71145 4.18706C5.71022 4.19396 5.70899 4.20107 5.70827 4.20827C5.70806 4.21105 5.70765 4.21373 5.70745 4.21651C5.70735 4.21785 5.70724 4.21929 5.70714 4.22084C5.70694 4.22403 5.70683 4.22732 5.70673 4.23051C5.70652 4.23422 5.70642 4.23793 5.70642 4.24174L5.67439 4.52849H2.17871V3.94727H6.00022V3.94747Z" fill="#E9ECEF"/>
<path d="M9.8211 3.94727V4.52849H6.32572L6.2938 4.24246V4.24225C6.2938 4.23752 6.29369 4.23278 6.29339 4.22804C6.29339 4.2267 6.29328 4.22537 6.29318 4.22403C6.29308 4.22197 6.29298 4.21991 6.29287 4.21775C6.29277 4.21558 6.29256 4.21373 6.29226 4.21157C6.29185 4.20683 6.29113 4.20199 6.29051 4.19736C6.28969 4.19242 6.28877 4.18737 6.28774 4.18243C6.28692 4.17842 6.28599 4.17419 6.28497 4.17018C6.28476 4.16925 6.28456 4.16832 6.28425 4.1674C6.28404 4.16647 6.28384 4.16565 6.28343 4.16472C6.28271 4.16174 6.28179 4.15875 6.28086 4.15576C6.28004 4.15278 6.27901 4.14989 6.27809 4.14701C6.27737 4.14485 6.27655 4.14258 6.27583 4.14042L6.27193 4.13044C6.2708 4.12755 6.26947 4.12467 6.26824 4.12179C6.26813 4.12168 6.26803 4.12148 6.26803 4.12137C6.26782 4.12076 6.26762 4.12024 6.26731 4.11962C6.26649 4.11777 6.26567 4.11592 6.26475 4.11406C6.2629 4.11036 6.26105 4.10655 6.259 4.10294C6.25879 4.10264 6.25859 4.10212 6.25828 4.10171C6.25818 4.1015 6.25797 4.10109 6.25787 4.10078C6.25694 4.09913 6.25602 4.09759 6.2551 4.09594C6.25417 4.09419 6.25325 4.09255 6.25222 4.091C6.25119 4.08925 6.25007 4.0875 6.24914 4.08575C6.24873 4.08513 6.24832 4.08462 6.24801 4.084C6.24596 4.08091 6.24401 4.07782 6.24185 4.07473C6.2399 4.07195 6.23795 4.06917 6.2359 4.0665C6.23467 4.06475 6.23364 4.0631 6.2322 4.06155C6.23046 4.05908 6.22861 4.05692 6.22666 4.05466C6.22368 4.05085 6.2205 4.04724 6.21742 4.04374C6.21434 4.04034 6.21106 4.03715 6.20787 4.03386C6.20787 4.03386 6.20784 4.03379 6.20777 4.03365C6.20777 4.03365 6.20777 4.03344 6.20767 4.03355C6.20767 4.03355 6.2076 4.03351 6.20746 4.03345C6.20428 4.03025 6.201 4.02706 6.19761 4.02387C6.19412 4.02078 6.19053 4.01769 6.18693 4.0146H6.18683C6.18457 4.01265 6.18231 4.0109 6.18006 4.00915C6.17821 4.0076 6.17626 4.00616 6.17431 4.00472C6.17369 4.00431 6.17318 4.00389 6.17256 4.00348C6.16979 4.00153 6.16712 3.99957 6.16435 3.99761C6.16045 3.99504 6.15634 3.99257 6.15234 3.99H6.15224C6.14885 3.98794 6.14556 3.98598 6.14218 3.98413C6.14135 3.98371 6.14064 3.9833 6.13992 3.98289C6.13807 3.98196 6.13632 3.98104 6.13458 3.98011C6.13283 3.97918 6.13109 3.97836 6.12924 3.97754C6.12739 3.97661 6.12565 3.97568 6.1238 3.97486C6.12308 3.97455 6.12247 3.97414 6.12165 3.97383C6.12062 3.97342 6.11959 3.9729 6.11846 3.97249C6.11816 3.97229 6.11774 3.97218 6.11744 3.97187C6.11723 3.97177 6.11682 3.97167 6.11662 3.97156C6.10922 3.96848 6.10173 3.96539 6.09403 3.96292C6.09188 3.96209 6.08951 3.96137 6.08736 3.96075C6.08572 3.96034 6.08418 3.95972 6.08243 3.95921C6.08079 3.9588 6.07904 3.95828 6.0774 3.95787C6.05276 3.95108 6.02679 3.94747 6 3.94747H9.82151L9.8211 3.94727Z" fill="#E9ECEF"/>
<path d="M5.60732 5.11914L5.54039 5.71755H1.58984V5.11914H5.60732Z" fill="#E9ECEF"/>
<path d="M10.4111 5.11914V5.71755H6.45864L6.3916 5.11914H10.4111Z" fill="#E9ECEF"/>
<path d="M5.42101 6.78598H5.42111C5.41485 6.82026 5.41167 6.85537 5.41167 6.89121V6.89738H1V6.30762H5.47449L5.42101 6.78598Z" fill="#E9ECEF"/>
<path d="M10.9999 6.30762V6.89738H6.58821V6.89121C6.58821 6.88801 6.58821 6.88472 6.58811 6.88153C6.58801 6.87957 6.58801 6.87751 6.58801 6.87535C6.58801 6.87339 6.58791 6.87144 6.5878 6.86938C6.5878 6.8667 6.5877 6.86413 6.5875 6.86155C6.58739 6.85805 6.58719 6.85465 6.58688 6.85126C6.58668 6.84683 6.58626 6.8425 6.58585 6.83818C6.58575 6.83653 6.58565 6.83499 6.58544 6.83334C6.58514 6.82933 6.58462 6.82531 6.58421 6.82129C6.58349 6.81543 6.58267 6.80945 6.58175 6.80358C6.58093 6.79772 6.5799 6.79195 6.57887 6.78598V6.78567L6.52539 6.30762H11.0001H10.9999Z" fill="#E9ECEF"/>
<path d="M5.49173 8.0763H1.58789V7.48633H5.45282L5.49173 8.0763Z" fill="#E9ECEF"/>
<path d="M10.4115 7.48633V8.0763H6.50781L6.54672 7.48633H10.4115Z" fill="#E9ECEF"/>
<path d="M5.56969 9.2472H2.17871V8.65723H5.53078L5.56969 9.2472Z" fill="#E9ECEF"/>
<path d="M9.82046 8.65723V9.2472H6.42969L6.46849 8.65723H9.82046Z" fill="#E9ECEF"/>
<path d="M5.6481 10.4278H2.76465V9.83789H5.60837L5.62511 10.0915C5.62511 10.0915 5.62552 10.0915 5.62583 10.0916L5.6481 10.4278Z" fill="#E9ECEF"/>
<path d="M9.23286 9.83789V10.4278H6.35156C6.35156 10.4278 6.37435 10.0909 6.37476 10.0909L6.3915 9.83789H9.23296H9.23286Z" fill="#E9ECEF"/>
<path d="M5.99979 11.6H3.35254V11.042H5.68843C5.68843 11.042 5.70589 11.296 5.70589 11.3058C5.70589 11.4684 5.83749 11.6 5.99989 11.6H5.99979Z" fill="#E9ECEF"/>
<path d="M6.00021 3.35818H2.76465V2.75977H5.59133L5.7062 3.06319C5.7062 3.22608 5.83781 3.35818 6.00021 3.35818Z" fill="#E9ECEF"/>
<path d="M9.2333 2.75977V3.35818H6C6.1624 3.35818 6.2941 3.22608 6.2941 3.06319L6.40897 2.75977H9.2333Z" fill="#E9ECEF"/>
<path d="M5.52747 1.5791L5.451 1.95429L5.44566 1.98024C5.4239 2.04192 5.41199 2.10843 5.41199 2.17762H3.35254V1.5792H5.52737L5.52747 1.5791Z" fill="#E9ECEF"/>
<path d="M8.64523 1.5792V2.17762H6.58804C6.58804 2.10843 6.57613 2.04192 6.55427 1.98024V1.98004L6.54924 1.95502H6.54913L6.47266 1.5791H8.64533L8.64523 1.5792Z" fill="#E9ECEF"/>
<path d="M8.05609 0.400391V0.990156H6.35131L6.29916 0.734399L6.2929 0.703819H6.2928C6.2927 0.540934 6.1612 0.408936 5.9988 0.408936C5.8364 0.408936 5.7049 0.540934 5.7048 0.703819L5.69864 0.733987L5.64639 0.990156H3.93945V0.400391H8.05599H8.05609Z" fill="#E9ECEF"/>
<path d="M5.60163 1.21582L5.57556 1.3439L5.5734 1.35379H1.00098V1.21582H5.60163Z" fill="#E9ECEF"/>
<path d="M10.9988 1.21582V1.35379H6.42646L6.42287 1.33598L6.39844 1.21582H10.9988Z" fill="#E9ECEF"/>
<path d="M5.51027 2.54715H1.00098V2.40918H5.45802L5.51027 2.54715Z" fill="#E9ECEF"/>
<path d="M10.9983 2.40918V2.54715H6.48926L6.54151 2.40918H10.9983Z" fill="#E9ECEF"/>
<path d="M10.9984 3.58301H1.00098V3.72098H10.9984V3.58301Z" fill="#E9ECEF"/>
<path d="M5.64731 4.76367L5.63181 4.90174H1.00098V4.76367H5.64731Z" fill="#E9ECEF"/>
<path d="M10.9978 4.76367V4.90174H6.36696L6.35156 4.76367H10.9978Z" fill="#E9ECEF"/>
<path d="M5.51524 5.94434L5.49974 6.08241H1V5.94434H5.51524Z" fill="#E9ECEF"/>
<path d="M10.9977 5.94434V6.08241H6.4989L6.4834 5.94434H10.9977Z" fill="#E9ECEF"/>
<path d="M5.43815 7.26102H1V7.12305H5.42912L5.43815 7.26102Z" fill="#E9ECEF"/>
<path d="M10.9996 7.12305V7.26102H6.56152L6.57066 7.12305H10.9996Z" fill="#E9ECEF"/>
<path d="M5.51555 8.43603H1V8.29785H5.50652L5.51555 8.43603Z" fill="#E9ECEF"/>
<path d="M10.9978 8.29785V8.43603H6.4834L6.49253 8.29785H10.9978Z" fill="#E9ECEF"/>
<path d="M5.59301 9.6116H1.00098V9.47363H5.58397L5.59301 9.6116Z" fill="#E9ECEF"/>
<path d="M10.9991 9.47363V9.6116H6.40625L6.41528 9.47363H10.9991Z" fill="#E9ECEF"/>
<path d="M5.67169 10.7923H1V10.6543H5.66255L5.66358 10.6693L5.67169 10.7923Z" fill="#E9ECEF"/>
<path d="M10.9988 10.6543V10.7923H6.32812L6.33582 10.6756L6.33716 10.6543H10.9988Z" fill="#E9ECEF"/>
</g>
<defs>
<clipPath id="clip0_670_130996">
<rect width="9.99944" height="11.1994" fill="white" transform="translate(1 0.400391)"/>
</clipPath>
</defs>
</svg>
