<svg width="135" height="115" viewBox="0 0 135 115" fill="none" xmlns="http://www.w3.org/2000/svg">
<path d="M66.5895 10.3423C40.2964 10.3423 18.9063 31.577 18.9063 57.6956C18.8932 68.7075 22.7658 79.3759 29.8512 87.847C29.946 87.9712 30.0471 88.0907 30.154 88.2049C30.7355 88.8191 31.4893 89.2458 32.3178 89.4297C33.1462 89.6137 34.0113 89.5465 34.8008 89.2368C35.5904 88.927 36.2681 88.3891 36.7463 87.6925C37.2245 86.9959 37.4811 86.1729 37.4829 85.3299C37.486 84.4254 37.1914 83.5447 36.644 82.8218L36.5108 82.6684C36.4532 82.5932 36.3896 82.527 36.3291 82.4519C30.5288 75.4922 27.3601 66.7385 27.3708 57.7046C27.3708 36.2293 44.9632 18.7598 66.5865 18.7598C74.0066 18.756 81.2754 20.8438 87.5477 24.7806C93.82 28.7174 98.838 34.3413 102.018 40.9985C105.199 47.6557 106.411 55.0726 105.514 62.3869C104.616 69.7011 101.647 76.6122 96.9499 82.3165C96.7803 82.527 96.6047 82.7375 96.4199 82.942C96.4131 82.95 96.4079 82.9592 96.4048 82.9691C95.7822 83.8658 95.5338 84.9671 95.7117 86.0418C95.8896 87.1165 96.4799 88.081 97.3587 88.7326C98.2376 89.3842 99.3365 89.6722 100.425 89.5363C101.513 89.4003 102.506 88.8509 103.195 88.0034C110.367 79.5117 114.291 68.7787 114.276 57.6956C114.276 31.577 92.8827 10.3423 66.5895 10.3423Z" fill="#F8F9FA"/>
<path d="M66.5897 34.6924C62.4239 34.6889 58.3344 35.8019 54.7525 37.914C51.1707 40.026 48.2292 43.0588 46.2383 46.6925C44.2474 50.3262 43.281 54.4261 43.4409 58.5597C43.6008 62.6933 44.8812 66.7075 47.1469 70.1788C47.1832 70.2389 47.2196 70.2961 47.2559 70.3472C47.5437 70.8211 47.9226 71.2341 48.3711 71.5626C48.8195 71.8911 49.3288 72.1287 49.8697 72.2617C50.4106 72.3948 50.9726 72.4207 51.5237 72.3381C52.0747 72.2555 52.6039 72.0659 53.0812 71.7802C53.5584 71.4945 53.9743 71.1182 54.3051 70.6728C54.6359 70.2275 54.8752 69.7218 55.0092 69.1847C55.1432 68.6475 55.1693 68.0894 55.0861 67.5422C55.0029 66.9951 54.812 66.4695 54.5243 65.9956C54.3759 65.7911 54.2396 65.5806 54.1124 65.3701C52.7429 63.1643 51.9898 60.6361 51.9306 58.0454C51.8713 55.4548 52.508 52.8952 53.7752 50.6299C55.0424 48.3647 56.8943 46.4754 59.1406 45.1565C61.3868 43.8376 63.9463 43.1367 66.5558 43.1257C69.1653 43.1148 71.7306 43.7942 73.988 45.0942C76.2454 46.3942 78.1134 48.2678 79.3998 50.5224C80.6862 52.7769 81.3447 55.3311 81.3075 57.9221C81.2703 60.5132 80.5387 63.0476 79.1881 65.2648C78.9973 65.5656 78.7974 65.8663 78.5824 66.167C78.1143 67.108 78.0153 68.1881 78.3046 69.1975C78.594 70.2069 79.251 71.0734 80.148 71.6284C81.045 72.1835 82.1177 72.3875 83.1578 72.2007C84.1978 72.0139 85.1306 71.4497 85.775 70.6179C85.7902 70.5998 85.8053 70.5728 85.8235 70.5517C85.9113 70.4254 85.9961 70.2931 86.0809 70.1577C88.3413 66.6857 89.6167 62.6726 89.7726 58.5411C89.9286 54.4096 88.9593 50.3128 86.9669 46.6826C84.9745 43.0523 82.0328 40.023 78.4519 37.9139C74.871 35.8047 70.7834 34.6939 66.62 34.6984L66.5897 34.6924Z" fill="#F8F9FA"/>
<path d="M55.0149 67.9894C55.0202 68.8957 54.7309 69.7794 54.19 70.5093C53.6491 71.2393 52.8855 71.7764 52.0126 72.0409C51.1397 72.3054 50.2042 72.2831 49.345 71.9775C48.4859 71.6718 47.749 71.099 47.2439 70.3442C47.2075 70.293 47.1712 70.2359 47.1349 70.1758C46.5619 69.2603 46.3644 68.1614 46.583 67.1056C46.8015 66.0498 47.4196 65.1175 48.3098 64.5007C49.1999 63.8838 50.2944 63.6296 51.3678 63.7902C52.4411 63.9508 53.4116 64.5141 54.0791 65.364C54.2063 65.5746 54.3426 65.7851 54.491 65.9896C54.8302 66.6026 55.0103 67.2899 55.0149 67.9894Z" fill="#F8F9FA"/>
<path d="M86.6143 68.0378C86.6153 68.7776 86.4177 69.5042 86.0419 70.1429C85.9572 70.2783 85.8724 70.4106 85.7845 70.5369C85.7664 70.5579 85.7512 70.585 85.7361 70.603C85.0867 71.4181 84.1578 71.9672 83.1267 72.1453C82.0955 72.3235 81.0344 72.1183 80.146 71.569C79.2575 71.0196 78.6039 70.1645 78.31 69.1671C78.0161 68.1696 78.1024 67.0995 78.5526 66.1612C78.7157 65.8365 78.9192 65.5334 79.1582 65.259C79.7282 64.6127 80.483 64.1543 81.322 63.9449C82.1611 63.7354 83.0445 63.7849 83.8544 64.0868C84.6644 64.3887 85.3625 64.9285 85.8556 65.6344C86.3486 66.3403 86.6133 67.1787 86.6143 68.0378Z" fill="#F8F9FA"/>
<path d="M104.161 85.324C104.161 85.9821 104.005 86.6309 103.707 87.2184C103.408 87.806 102.975 88.3158 102.443 88.7071C101.91 89.0984 101.292 89.3603 100.639 89.4716C99.9859 89.583 99.3156 89.5408 98.6818 89.3484C98.0481 89.156 97.4686 88.8187 96.9899 88.3637C96.5112 87.9087 96.1465 87.3486 95.9251 86.7284C95.7038 86.1081 95.632 85.445 95.7154 84.7922C95.7988 84.1393 96.0351 83.515 96.4054 82.9693C96.4086 82.9594 96.4138 82.9502 96.4206 82.9422C96.9319 82.199 97.6697 81.638 98.5256 81.3417C99.3815 81.0453 100.311 81.0292 101.176 81.2956C102.042 81.562 102.799 82.097 103.337 82.822C103.874 83.547 104.163 84.4239 104.161 85.324Z" fill="#F8F9FA"/>
<path d="M37.486 85.3298C37.4842 86.1728 37.2276 86.9958 36.7494 87.6924C36.2712 88.389 35.5935 88.9269 34.8039 89.2367C34.0143 89.5464 33.1493 89.6136 32.3209 89.4296C31.4924 89.2457 30.7386 88.819 30.1571 88.2048C30.0502 88.0906 29.9491 87.9711 29.8542 87.8469C29.3857 87.2207 29.1015 86.4776 29.0335 85.7004C28.9655 84.9232 29.1162 84.1426 29.4689 83.4455C29.8216 82.7484 30.3624 82.1624 31.031 81.7527C31.6996 81.3431 32.4696 81.1259 33.2552 81.1255C33.8331 81.123 34.4053 81.2386 34.9363 81.4652C35.4672 81.6918 35.9454 82.0246 36.3412 82.4427C36.4487 82.5607 36.5498 82.6841 36.6441 82.8126C37.1944 83.5376 37.4902 84.4219 37.486 85.3298Z" fill="#F8F9FA"/>
<path d="M66.5834 84.3767C68.9217 84.3767 70.8172 82.4944 70.8172 80.1725C70.8172 77.8506 68.9217 75.9683 66.5834 75.9683C64.2451 75.9683 62.3496 77.8506 62.3496 80.1725C62.3496 82.4944 64.2451 84.3767 66.5834 84.3767Z" fill="#F8F9FA"/>
<path d="M47.6576 102.141C49.9959 102.141 51.8914 100.259 51.8914 97.9367C51.8914 95.6147 49.9959 93.7324 47.6576 93.7324C45.3194 93.7324 43.4238 95.6147 43.4238 97.9367C43.4238 100.259 45.3194 102.141 47.6576 102.141Z" fill="#F8F9FA"/>
<path d="M84.2846 102.141C86.6228 102.141 88.5184 100.259 88.5184 97.9367C88.5184 95.6147 86.6228 93.7324 84.2846 93.7324C81.9463 93.7324 80.0508 95.6147 80.0508 97.9367C80.0508 100.259 81.9463 102.141 84.2846 102.141Z" fill="#F8F9FA"/>
</svg>
