<svg width="97" height="93" viewBox="0 0 97 93" fill="none" xmlns="http://www.w3.org/2000/svg">
<path d="M48.5895 0.342285C22.2964 0.342285 0.906283 21.577 0.906283 47.6956C0.893234 58.7075 4.76584 69.3759 11.8512 77.847C11.946 77.9712 12.0471 78.0907 12.154 78.2049C12.7355 78.8191 13.4893 79.2458 14.3178 79.4297C15.1462 79.6137 16.0113 79.5465 16.8008 79.2368C17.5904 78.927 18.2681 78.3891 18.7463 77.6925C19.2245 76.9959 19.4811 76.1729 19.4829 75.3299C19.486 74.4254 19.1914 73.5447 18.644 72.8218L18.5108 72.6684C18.4532 72.5932 18.3896 72.527 18.3291 72.4519C12.5288 65.4922 9.3601 56.7385 9.37085 47.7046C9.37085 26.2293 26.9632 8.75978 48.5865 8.75978C56.0066 8.75597 63.2754 10.8438 69.5477 14.7806C75.82 18.7174 80.838 24.3413 84.0184 30.9985C87.1988 37.6557 88.4108 45.0726 87.5136 52.3869C86.6163 59.7011 83.6467 66.6122 78.9499 72.3165C78.7803 72.527 78.6047 72.7375 78.4199 72.942C78.4131 72.95 78.4079 72.9592 78.4048 72.9691C77.7822 73.8658 77.5338 74.9671 77.7117 76.0418C77.8896 77.1165 78.4799 78.081 79.3587 78.7326C80.2376 79.3842 81.3365 79.6722 82.4247 79.5363C83.5129 79.4003 84.5057 78.8509 85.1946 78.0034C92.367 69.5117 96.2911 58.7787 96.2757 47.6956C96.2757 21.577 74.8827 0.342285 48.5895 0.342285Z" fill="#F8F9FA"/>
<path d="M48.5897 24.6924C44.4239 24.6889 40.3344 25.8019 36.7525 27.914C33.1707 30.026 30.2292 33.0588 28.2383 36.6925C26.2474 40.3262 25.281 44.4261 25.4409 48.5597C25.6008 52.6933 26.8812 56.7075 29.1469 60.1788C29.1832 60.2389 29.2196 60.2961 29.2559 60.3472C29.5437 60.8211 29.9226 61.2341 30.3711 61.5626C30.8195 61.8911 31.3288 62.1287 31.8697 62.2617C32.4106 62.3948 32.9726 62.4207 33.5237 62.3381C34.0747 62.2555 34.6039 62.0659 35.0812 61.7802C35.5584 61.4945 35.9743 61.1182 36.3051 60.6728C36.6359 60.2275 36.8752 59.7218 37.0092 59.1847C37.1432 58.6475 37.1693 58.0894 37.0861 57.5422C37.0029 56.9951 36.812 56.4695 36.5243 55.9956C36.3759 55.7911 36.2396 55.5806 36.1124 55.3701C34.7429 53.1643 33.9898 50.6361 33.9306 48.0454C33.8713 45.4548 34.508 42.8952 35.7752 40.6299C37.0424 38.3647 38.8943 36.4754 41.1406 35.1565C43.3868 33.8376 45.9463 33.1367 48.5558 33.1257C51.1653 33.1148 53.7306 33.7942 55.988 35.0942C58.2454 36.3942 60.1134 38.2678 61.3998 40.5224C62.6862 42.7769 63.3447 45.3311 63.3075 47.9221C63.2703 50.5132 62.5387 53.0476 61.1881 55.2648C60.9973 55.5656 60.7974 55.8663 60.5824 56.167C60.1143 57.108 60.0153 58.1881 60.3046 59.1975C60.594 60.2069 61.251 61.0734 62.148 61.6284C63.045 62.1835 64.1177 62.3875 65.1578 62.2007C66.1978 62.0139 67.1306 61.4497 67.775 60.6179C67.7902 60.5998 67.8053 60.5728 67.8235 60.5517C67.9113 60.4254 67.9961 60.2931 68.0809 60.1577C70.3413 56.6857 71.6167 52.6726 71.7726 48.5411C71.9286 44.4096 70.9593 40.3128 68.9669 36.6826C66.9745 33.0523 64.0328 30.023 60.4519 27.9139C56.871 25.8047 52.7834 24.6939 48.62 24.6984L48.5897 24.6924Z" fill="#F8F9FA"/>
<path d="M37.0149 57.9894C37.0202 58.8957 36.7309 59.7794 36.19 60.5093C35.6491 61.2393 34.8855 61.7764 34.0126 62.0409C33.1397 62.3054 32.2042 62.2831 31.345 61.9775C30.4859 61.6718 29.749 61.099 29.2439 60.3442C29.2075 60.293 29.1712 60.2359 29.1349 60.1758C28.5619 59.2603 28.3644 58.1614 28.583 57.1056C28.8015 56.0498 29.4196 55.1175 30.3098 54.5007C31.1999 53.8838 32.2944 53.6296 33.3678 53.7902C34.4411 53.9508 35.4116 54.5141 36.0791 55.364C36.2063 55.5746 36.3426 55.7851 36.491 55.9896C36.8302 56.6026 37.0103 57.2899 37.0149 57.9894Z" fill="#F8F9FA"/>
<path d="M68.6143 58.0378C68.6153 58.7776 68.4177 59.5042 68.0419 60.1429C67.9572 60.2783 67.8724 60.4106 67.7845 60.5369C67.7664 60.5579 67.7512 60.585 67.7361 60.603C67.0867 61.4181 66.1578 61.9672 65.1267 62.1453C64.0955 62.3235 63.0344 62.1183 62.146 61.569C61.2575 61.0196 60.6039 60.1645 60.31 59.1671C60.0161 58.1696 60.1024 57.0995 60.5526 56.1612C60.7157 55.8365 60.9192 55.5334 61.1582 55.259C61.7282 54.6127 62.483 54.1543 63.322 53.9449C64.1611 53.7354 65.0445 53.7849 65.8544 54.0868C66.6644 54.3887 67.3625 54.9285 67.8556 55.6344C68.3486 56.3403 68.6133 57.1787 68.6143 58.0378Z" fill="#F8F9FA"/>
<path d="M86.1613 75.324C86.161 75.9821 86.0054 76.6309 85.7069 77.2184C85.4085 77.806 84.9755 78.3158 84.4427 78.7071C83.9099 79.0984 83.2921 79.3603 82.639 79.4716C81.9859 79.583 81.3156 79.5408 80.6818 79.3484C80.0481 79.156 79.4686 78.8187 78.9899 78.3637C78.5112 77.9087 78.1465 77.3486 77.9251 76.7284C77.7038 76.1081 77.632 75.445 77.7154 74.7922C77.7988 74.1393 78.0351 73.515 78.4054 72.9693C78.4086 72.9594 78.4138 72.9502 78.4206 72.9422C78.9319 72.199 79.6697 71.638 80.5256 71.3417C81.3815 71.0453 82.3105 71.0292 83.1764 71.2956C84.0422 71.562 84.7993 72.097 85.3365 72.822C85.8737 73.547 86.1628 74.4239 86.1613 75.324Z" fill="#F8F9FA"/>
<path d="M19.486 75.3298C19.4842 76.1728 19.2276 76.9958 18.7494 77.6924C18.2712 78.389 17.5935 78.9269 16.8039 79.2367C16.0143 79.5464 15.1493 79.6136 14.3209 79.4296C13.4924 79.2457 12.7386 78.819 12.1571 78.2048C12.0502 78.0906 11.9491 77.9711 11.8542 77.8469C11.3857 77.2207 11.1015 76.4776 11.0335 75.7004C10.9655 74.9232 11.1162 74.1426 11.4689 73.4455C11.8216 72.7484 12.3624 72.1624 13.031 71.7527C13.6996 71.3431 14.4696 71.1259 15.2552 71.1255C15.8331 71.123 16.4053 71.2386 16.9363 71.4652C17.4672 71.6918 17.9454 72.0246 18.3412 72.4427C18.4487 72.5607 18.5498 72.6841 18.6441 72.8126C19.1944 73.5376 19.4902 74.4219 19.486 75.3298Z" fill="#F8F9FA"/>
<path d="M48.5834 74.3767C50.9217 74.3767 52.8172 72.4944 52.8172 70.1725C52.8172 67.8506 50.9217 65.9683 48.5834 65.9683C46.2451 65.9683 44.3496 67.8506 44.3496 70.1725C44.3496 72.4944 46.2451 74.3767 48.5834 74.3767Z" fill="#F8F9FA"/>
<path d="M29.6576 92.1409C31.9959 92.1409 33.8914 90.2586 33.8914 87.9367C33.8914 85.6147 31.9959 83.7324 29.6576 83.7324C27.3194 83.7324 25.4238 85.6147 25.4238 87.9367C25.4238 90.2586 27.3194 92.1409 29.6576 92.1409Z" fill="#F8F9FA"/>
<path d="M66.2846 92.1409C68.6228 92.1409 70.5184 90.2586 70.5184 87.9367C70.5184 85.6147 68.6228 83.7324 66.2846 83.7324C63.9463 83.7324 62.0508 85.6147 62.0508 87.9367C62.0508 90.2586 63.9463 92.1409 66.2846 92.1409Z" fill="#F8F9FA"/>
</svg>
